<?xml version="1.0" encoding="utf-8"?>
<svg viewBox="79.8591 26.1334 152.274 151.6694" xmlns="http://www.w3.org/2000/svg">
  <path fill="#FDFDFD" opacity="1.000000" stroke="none" d=" M79.997658,109.002487   C78.668388,83.316162 86.870789,61.781284 106.143600,45.441227   C130.299484,24.961138 158.000168,20.495466 186.782486,33.378071   C215.872375,46.398335 231.331909,69.994057 231.918793,102.252548   C232.346146,125.742371 232.002335,149.246216 232.002335,172.743820   C232.002335,174.365967 232.002335,175.988113 232.002335,177.802872   C221.670975,177.802872 211.733002,177.802872 201.367218,177.802872   C201.367218,168.711136 201.367218,159.631699 201.367218,150.280273   C171.045898,150.280273 141.150116,150.280273 110.981323,150.280273   C110.981323,159.332672 110.981323,168.274734 110.981323,177.608337   C100.674232,177.608337 90.624596,177.608337 79.997658,177.608337   C79.997658,155.024628 79.997658,132.263260 79.997658,109.002487  M142.500565,119.162323   C156.475937,119.161743 170.452377,119.265915 184.426346,119.125435   C194.504181,119.024124 201.111603,112.119286 201.162262,102.043442   C201.285934,77.448524 180.916962,57.457451 155.786026,57.509048   C130.865265,57.560211 110.554184,77.894928 110.837776,102.509621   C110.946724,111.965927 117.557373,118.829567 127.027321,119.130577   C131.847351,119.283783 136.676147,119.160583 142.500565,119.162323  z" transform="matrix(1, 0, 0, 1, -7.105427357601002e-15, 0)"/>
</svg>