<?xml version="1.0" encoding="utf-8"?>
<svg viewBox="263.7846 26.2803 137.8598 151.7358" xmlns="http://www.w3.org/2000/svg">
  <path fill="#FEFEFE" opacity="1.000000" stroke="none" d=" M263.830139,83.999924   C263.830170,64.520447 263.830170,45.540977 263.830170,26.280251   C274.114929,26.280251 284.194916,26.280251 294.838348,26.280251   C294.838348,28.072027 294.838348,29.844709 294.838348,31.617392   C294.838348,60.282829 294.823456,88.948280 294.843689,117.613708   C294.856842,136.240799 305.664612,146.997955 324.299286,146.998184   C349.961853,146.998489 375.624451,146.998260 401.644348,146.998260   C401.644348,157.139099 401.644348,167.215164 401.644348,177.784393   C400.526215,177.845779 399.106110,177.991028 397.685913,177.991776   C371.853699,178.005447 346.021393,178.038666 320.189270,177.992020   C290.669220,177.938721 265.131042,153.519547 264.059479,123.986763   C263.582397,110.839020 263.882690,97.663078 263.830139,83.999924  z" transform="matrix(1, 0, 0, 1, -7.105427357601002e-15, 0)"/>
</svg>