<?xml version="1.0" encoding="utf-8"?>
<svg viewBox="783.6614 25.8393 138.1071 152.1641" xmlns="http://www.w3.org/2000/svg">
  <path fill="#FDFDFD" opacity="1.000000" stroke="none" d=" M837.495728,117.956749   C829.813232,118.567924 822.535706,119.096710 815.302307,119.622276   C814.088501,134.220856 825.947693,147.058456 840.756042,147.127472   C865.750793,147.243958 890.746460,147.159576 915.741699,147.159653   C917.566956,147.159653 919.392212,147.159653 921.609497,147.159653   C921.609497,157.324783 921.609497,167.374023 921.609497,178.003265   C920.195496,178.003265 918.597839,178.003265 917.000183,178.003265   C892.171570,178.003265 867.342896,178.003448 842.514282,178.003235   C812.067322,178.002960 787.223877,156.819748 784.622314,126.572021   C783.131897,109.244034 783.422363,91.526421 785.167969,74.211739   C787.815735,47.947281 811.907166,26.597929 838.245483,26.104919   C866.014954,25.585123 893.801697,25.988411 921.768616,25.988411   C921.768616,36.281918 921.768616,46.352772 921.768616,56.840351   C914.585876,56.840351 907.629395,56.840317 900.672913,56.840355   C881.509888,56.840450 862.346130,56.736183 843.184021,56.870758   C824.905273,56.999123 813.608459,69.593452 815.174866,88.360428   C821.201965,88.062042 827.260315,87.803284 833.313232,87.451065   C839.592407,87.085655 842.732117,89.816284 842.827454,95.966957   C842.894592,100.298431 842.700562,104.637611 842.880798,108.962608   C843.051208,113.052155 841.724915,116.111557 837.495728,117.956749  z" transform="matrix(1, 0, 0, 1, -7.105427357601002e-15, 0)"/>
</svg>