<?xml version="1.0" encoding="utf-8"?>
<svg viewBox="601.2354 25.7097 151.2673 152.2904" xmlns="http://www.w3.org/2000/svg">
  <path fill="#FDFDFD" opacity="1.000000" stroke="none" d=" M723.160278,177.976471   C722.390625,176.241364 721.874878,174.531479 721.863220,172.818130   C721.714417,150.993362 722.533386,129.118454 721.326599,107.354973   C719.648376,77.087471 698.822876,57.728996 668.515198,56.555069   C661.859070,56.297249 655.180847,56.375214 648.519287,56.548119   C637.505981,56.833973 631.847595,62.796532 631.844360,73.886696   C631.834900,106.550545 631.841064,139.214401 631.841064,171.878250   C631.841064,173.693420 631.841003,175.508575 631.841003,177.660751   C621.577209,177.660751 611.527588,177.660751 601.235352,177.660751   C601.235352,127.271523 601.235352,76.855629 601.235352,26.420074   C601.477661,26.248886 601.731018,25.913157 601.984131,25.913357   C626.478455,25.932652 650.997070,25.299316 675.461670,26.173834   C715.802490,27.615864 751.184265,63.936932 752.095398,104.286484   C752.625610,127.767883 752.402283,151.266357 752.502563,174.757217   C752.506714,175.726242 752.353271,176.695969 752.245605,178.000092   C742.585815,178.000092 733.117188,178.000092 723.160278,177.976471  z" transform="matrix(1, 0, 0, 1, -7.105427357601002e-15, 0)"/>
</svg>