<?xml version="1.0" encoding="utf-8"?>
<svg viewBox="417.7745 25.9159 152.7881 152.1007" xmlns="http://www.w3.org/2000/svg">
  <path fill="#FDFDFD" opacity="1.000000" stroke="none" d=" M504.321136,177.397858   C463.799561,182.611130 425.266815,154.258728 418.876862,115.745087   C411.649200,72.182259 440.848358,34.672688 480.543762,27.202379   C522.310486,19.342251 562.598816,48.341599 569.644775,91.191330   C576.291321,131.612106 546.056396,171.749619 504.321136,177.397858  M534.662781,81.982025   C533.526978,80.145401 532.464539,78.258362 531.243896,76.479965   C518.988098,58.624989 495.729584,52.007713 476.012878,60.738262   C456.175446,69.522278 444.672607,91.160683 449.631775,111.310173   C454.061829,129.309814 465.520721,141.272568 483.461090,145.670700   C501.508911,150.095184 517.206421,144.615906 529.040710,130.262482   C540.907959,115.869003 542.727295,99.748711 534.662781,81.982025  z" transform="matrix(1, 0, 0, 1, -7.105427357601002e-15, 0)"/>
</svg>